<svg width="1024" height="1024" viewBox="0 0 1024 1024" xmlns="http://www.w3.org/2000/svg">
  <defs>
    <radialGradient id="bg" cx="50%" cy="44%" r="70%">
      <stop offset="0%" stop-color="#7cf6ff"/>
      <stop offset="30%" stop-color="#6b37ff"/>
      <stop offset="68%" stop-color="#101837"/>
      <stop offset="100%" stop-color="#05030f"/>
    </radialGradient>
    <filter id="glow"><feGaussianBlur stdDeviation="18"/></filter>
  </defs>
  <rect width="1024" height="1024" rx="150" fill="url(#bg)"/>
  <g filter="url(#glow)" opacity=".8">
    <circle cx="512" cy="510" r="210" fill="#7cf6ff"/>
    <circle cx="372" cy="650" r="120" fill="#ff74d4"/>
    <circle cx="648" cy="372" r="130" fill="#fff4a8"/>
  </g>
  <g fill="none" stroke="#f7fbff" stroke-opacity=".78">
    <circle cx="512" cy="512" r="286" stroke-width="7"/>
    <circle cx="512" cy="512" r="190" stroke-width="4"/>
    <circle cx="512" cy="512" r="92" stroke-width="3"/>
  </g>
  <g fill="#f7fbff" opacity=".9">
    <path d="M512 328 590 512 512 696 434 512Z"/>
    <path d="M334 454 382 510 334 566 286 510Z" opacity=".75"/>
    <path d="M704 420 752 476 704 532 656 476Z" opacity=".75"/>
    <path d="M646 646 694 702 646 758 598 702Z" opacity=".75"/>
  </g>
  <text x="512" y="158" text-anchor="middle" font-size="58" font-family="Arial, sans-serif" font-weight="800" fill="#f7fbff" letter-spacing="4">CRYSTAL</text>
  <text x="512" y="222" text-anchor="middle" font-size="54" font-family="Arial, sans-serif" font-weight="800" fill="#d9faff" letter-spacing="6">SWARM</text>
</svg>
